<svg xmlns="http://www.w3.org/2000/svg" viewBox="0 0 160.61 152.24"><defs><style>.cls-1{fill:#fff;}</style></defs><g id="Camada_2" data-name="Camada 2"><g id="Camada_1-2" data-name="Camada 1"><path class="cls-1" d="M160.47,71a5.78,5.78,0,0,1-.27-1.3s0,0,0,0a3.77,3.77,0,0,1-.43-1.93,5.39,5.39,0,0,1,.05-.71,47.83,47.83,0,0,1-2.17-4.66l-.09-.29a3.74,3.74,0,0,1-.83-.82c-7.47-10-18.22-11-29.48-10.6-6.11.2-11.93,2.28-18.3,3,3-8.47,7.65-15.81,10.16-24,3.44-11.24,1.24-19.11-7.47-24.22-14.92-8.77-33.77-7.5-43,8.27-2.69,4.6-4,10.06-5.63,15.22-1.19,3.73-2.9,3.31-4.59.71-5.82-9-14.3-13.48-24.58-15.13a11.57,11.57,0,0,0-5.9,0C16.39,15.71,7.92,21.22,3,31.93-2,42.83-1.37,54,9.71,63c6.58,5.38,14.42,8.64,20.9,14.21-1.86,2.43-4.61,3.67-6.91,5.46-8,6.26-15.26,13.11-16.95,23.88a7.92,7.92,0,0,0,0,4.91A15.75,15.75,0,0,0,10,120.14c6.16,9.14,15.26,15.65,27.57,8a62.47,62.47,0,0,0,15.33-14c1.23-1.52,2.52-4.33,5-3.29,2.08.89.93,3.55,1,5.4.21,6.91-.44,13.9,1.27,20.67,1.45,5.7,2.72,11.58,9.3,14.13,11.16,4.32,26.54-3.24,30.35-15.15,1.47-4.61,1.56-9.42,2-14.19-1-1.59,0-3.5-.78-5.12-1.3-6.53-2.61-13.06-4-19.84,9.92,1.9,19,5.93,28.82,6.94,1.64.84,3.57-.16,5.21.78,5.84-.11,11.57-.06,16.91-3.42,7.69-4.84,10.09-12.46,12-20.52.7-1.66-.2-3.54.71-5.17C159.61,73.4,159.76,72.07,160.47,71ZM68.76,89.42A13.13,13.13,0,0,1,56.13,76c0-8.38,7.62-15.54,16.36-15.47,6.91.06,12.2,6,12.12,13.72A15.34,15.34,0,0,1,68.76,89.42Z"/></g></g></svg>